<?xml version="1.0" encoding="UTF-8"?>
<svg width="217px" height="140px" viewBox="0 0 217 140" version="1.1" xmlns="http://www.w3.org/2000/svg" xmlns:xlink="http://www.w3.org/1999/xlink">
    <!-- Generator: Sketch 60 (88103) - https://sketch.com -->
    <title>Group</title>
    <desc>Created with Sketch.</desc>
    <defs>
        <linearGradient x1="31.1593387%" y1="58.4588035%" x2="99.9820146%" y2="-3.08430925%" id="linearGradient-1">
            <stop stop-color="#FFD41F" offset="0%"></stop>
            <stop stop-color="#9F4920" offset="100%"></stop>
        </linearGradient>
        <linearGradient x1="31.1593387%" y1="55.4811883%" x2="99.9820146%" y2="15.6020976%" id="linearGradient-2">
            <stop stop-color="#FFD41F" offset="0%"></stop>
            <stop stop-color="#9F4920" offset="100%"></stop>
        </linearGradient>
        <linearGradient x1="31.4395957%" y1="59.6252701%" x2="99.2385263%" y2="-10.4046204%" id="linearGradient-3">
            <stop stop-color="#FFD41F" offset="0%"></stop>
            <stop stop-color="#9F4920" offset="100%"></stop>
        </linearGradient>
        <linearGradient x1="31.1593387%" y1="59.1589765%" x2="99.9820146%" y2="-7.47833509%" id="linearGradient-4">
            <stop stop-color="#BD741F" offset="0%"></stop>
            <stop stop-color="#FFD41F" offset="100%"></stop>
        </linearGradient>
        <linearGradient x1="34.9359665%" y1="59.6252701%" x2="89.9630739%" y2="-10.4046204%" id="linearGradient-5">
            <stop stop-color="#C07820" offset="0%"></stop>
            <stop stop-color="#FFD41F" offset="100%"></stop>
        </linearGradient>
        <linearGradient x1="36.1804017%" y1="59.6252701%" x2="86.6617367%" y2="-10.4046204%" id="linearGradient-6">
            <stop stop-color="#BD741F" offset="0%"></stop>
            <stop stop-color="#FFD41F" offset="100%"></stop>
        </linearGradient>
        <linearGradient x1="31.1593387%" y1="57.3988513%" x2="99.9820146%" y2="3.5675569%" id="linearGradient-7">
            <stop stop-color="#BD741F" offset="0%"></stop>
            <stop stop-color="#FFD41F" offset="100%"></stop>
        </linearGradient>
    </defs>
    <g id="Symbols" stroke="none" stroke-width="1" fill="none" fill-rule="evenodd">
        <g id="logo-gh" fill-rule="nonzero">
            <g id="Group">
                <path d="M4.17327143,122.073 L124.645221,14.3311875 C123.768129,14.38675 122.888857,14.422625 122.000871,14.413875 C113.033,14.503125 104.737,11.2240625 95.1421357,5.5671875 L1.12414286,90.3415625 C-0.514578571,102.503188 0.502378571,113.533 4.17327143,122.073 Z" id="Path" fill="url(#linearGradient-1)"></path>
                <path d="M101.586629,80.674 C107.005607,80.706375 112.432429,81.5035 117.613943,83.065375 L191.875343,18.42825 C185.437664,11.2528125 178.538129,5.3623125 171.597636,1 L81,84.66925 C87.5065214,82.0495 94.5528929,80.716 101.586629,80.674 Z" id="Path" fill="url(#linearGradient-2)"></path>
                <path d="M207.2509,46 L144,101.335437 C151.279043,108.609312 159.005564,114.2675 166.623157,117.979687 L215.442329,77.3495 C214.51905,67.5044375 211.787993,56.800125 207.2509,46 Z" id="Path" fill="url(#linearGradient-3)"></path>
                <path d="M170,121.1715 C177.041143,122.252125 183.053736,120.035788 189.291686,118.032437 C206.518364,112.5 216.99735,94.3513859 216,76.5193234 L170,121.1715 Z" id="Path" fill="url(#linearGradient-4)"></path>
                <path d="M77.5188,9.01471377 C57.2720286,8.40090127 31.5905929,27.0353388 14.5010071,56.7569013 C6.98755,69.8241513 2.15373571,83.2632763 7.10542736e-15,95.6930888 L77.5188,9.01471377 Z" id="Path" fill="url(#linearGradient-5)"></path>
                <path d="M148.504314,106.51175 L206.518364,39.655625 C206.0674,38.831375 205.608593,38.008875 205.136714,37.18725 C200.597007,29.2908125 195.449479,22.1788125 189.958171,16 L129,86.6103125 C133.411607,89.5424375 137.361793,93.2069375 140.6083,97.6099375 C143.155486,100.790563 145.797221,103.7625 148.504314,106.51175 Z" id="Path" fill="url(#linearGradient-6)"></path>
                <path d="M172.027436,1.50333228 C163.134071,-0.967230222 154.7274,-0.468917722 147.766429,3.56526978 C138.213393,9.50301978 130.069893,13.3088323 121.552986,14.1081448 L13,136.485207 C25.0623143,142.67802 41.1318929,138.80527 56.5361357,127.58427 L172.027436,1.50333228 Z" id="Path" fill="url(#linearGradient-7)"></path>
            </g>
        </g>
    </g>
</svg>